# xmcd CD database file
#
# Track frame offsets:
#	150
#	14665
#	30297
#	44800
#	60187
#	74822
#	89017
#	102177
#	116462
#	132110
#	145110
#	159102
#	175100
#	190625
#	205652
#	219817
#	233820
#	245260
#	258475
#
# Disc length: 3645 seconds
#
# Revision: 1
# Processed by: cddbd v1.5.2PL0 Copyright (c) Steve Scherf et al.
# Submitted via: CDex 1.51
#
DISCID=fd0e3b13
DTITLE=Jelly Roll Morton - Volume 2 Chicago: The Red Hot Peppers
DYEAR=1991
DGENRE=Blues
TTITLE0=Black Bottom Stomp
TTITLE1=Smoke House Blues
TTITLE2=The Chant
TTITLE3=Sidewalk Blues
TTITLE4=Dead Man Blues
TTITLE5=Steam Boat Stomp
TTITLE6=Granpa's Spells
TTITLE7=Original Jelly Roll Blues
TTITLE8=Doctor Jazz
TTITLE9=Cannonball Blues
TTITLE10=Wild Man Blues
TTITLE11=Jungle Blues
TTITLE12=The Pearls
TTITLE13=Wolverine Blues
TTITLE14=Ham and Eggs
TTITLE15=Buffalo Blues
TTITLE16=Georgia Swing
TTITLE17=Kansas City Stomps
TTITLE18=Shoe Shiner's Dog
EXTD=YEAR: 1991
EXTT0=
EXTT1=
EXTT2=
EXTT3=
EXTT4=
EXTT5=
EXTT6=
EXTT7=
EXTT8=
EXTT9=
EXTT10=
EXTT11=
EXTT12=
EXTT13=
EXTT14=
EXTT15=
EXTT16=
EXTT17=
EXTT18=
PLAYORDER=
